<?xml version="1.0" encoding="UTF-8" standalone="no"?>
<!-- Created with Inkscape (http://www.inkscape.org/) -->

<svg
   xmlns:dc="http://purl.org/dc/elements/1.1/"
   xmlns:cc="http://creativecommons.org/ns#"
   xmlns:rdf="http://www.w3.org/1999/02/22-rdf-syntax-ns#"
   xmlns:svg="http://www.w3.org/2000/svg"
   xmlns="http://www.w3.org/2000/svg"
   xmlns:sodipodi="http://sodipodi.sourceforge.net/DTD/sodipodi-0.dtd"
   xmlns:inkscape="http://www.inkscape.org/namespaces/inkscape"
   width="297mm"
   height="210mm"
   viewBox="0 0 1052.3622 744.09448"
   id="svg5952"
   version="1.1"
   inkscape:version="0.91 r13725"
   sodipodi:docname="ground.svg"
   inkscape:export-filename="/Users/laurin/Documents/Work/PermafrostPredictor/images/root.png"
   inkscape:export-xdpi="36.068703"
   inkscape:export-ydpi="36.068703">
  <defs
     id="defs5954">
    <marker
       inkscape:isstock="true"
       style="overflow:visible"
       id="marker10180"
       refX="0"
       refY="0"
       orient="auto"
       inkscape:stockid="Arrow1Lstart">
      <path
         transform="matrix(0.8,0,0,0.8,10,0)"
         style="fill:#007200;fill-opacity:1;fill-rule:evenodd;stroke:#007200;stroke-width:1pt;stroke-opacity:1"
         d="M 0,0 5,-5 -12.5,0 5,5 0,0 Z"
         id="path10182"
         inkscape:connector-curvature="0" />
    </marker>
    <marker
       inkscape:isstock="true"
       style="overflow:visible"
       id="marker10002"
       refX="0"
       refY="0"
       orient="auto"
       inkscape:stockid="Arrow1Lstart">
      <path
         transform="matrix(0.8,0,0,0.8,10,0)"
         style="fill:#007200;fill-opacity:1;fill-rule:evenodd;stroke:#007200;stroke-width:1pt;stroke-opacity:1"
         d="M 0,0 5,-5 -12.5,0 5,5 0,0 Z"
         id="path10004"
         inkscape:connector-curvature="0" />
    </marker>
    <marker
       inkscape:isstock="true"
       style="overflow:visible"
       id="marker9830"
       refX="0"
       refY="0"
       orient="auto"
       inkscape:stockid="Arrow1Lstart">
      <path
         transform="matrix(0.8,0,0,0.8,10,0)"
         style="fill:#007200;fill-opacity:1;fill-rule:evenodd;stroke:#007200;stroke-width:1pt;stroke-opacity:1"
         d="M 0,0 5,-5 -12.5,0 5,5 0,0 Z"
         id="path9832"
         inkscape:connector-curvature="0" />
    </marker>
    <marker
       inkscape:isstock="true"
       style="overflow:visible"
       id="marker9664"
       refX="0"
       refY="0"
       orient="auto"
       inkscape:stockid="Arrow1Lstart">
      <path
         transform="matrix(0.8,0,0,0.8,10,0)"
         style="fill:#007200;fill-opacity:1;fill-rule:evenodd;stroke:#007200;stroke-width:1pt;stroke-opacity:1"
         d="M 0,0 5,-5 -12.5,0 5,5 0,0 Z"
         id="path9666"
         inkscape:connector-curvature="0" />
    </marker>
    <marker
       inkscape:isstock="true"
       style="overflow:visible"
       id="marker9504"
       refX="0"
       refY="0"
       orient="auto"
       inkscape:stockid="Arrow1Lstart">
      <path
         transform="matrix(0.8,0,0,0.8,10,0)"
         style="fill:#007200;fill-opacity:1;fill-rule:evenodd;stroke:#007200;stroke-width:1pt;stroke-opacity:1"
         d="M 0,0 5,-5 -12.5,0 5,5 0,0 Z"
         id="path9506"
         inkscape:connector-curvature="0" />
    </marker>
    <marker
       inkscape:isstock="true"
       style="overflow:visible"
       id="marker9350"
       refX="0"
       refY="0"
       orient="auto"
       inkscape:stockid="Arrow1Lstart">
      <path
         transform="matrix(0.8,0,0,0.8,10,0)"
         style="fill:#007200;fill-opacity:1;fill-rule:evenodd;stroke:#007200;stroke-width:1pt;stroke-opacity:1"
         d="M 0,0 5,-5 -12.5,0 5,5 0,0 Z"
         id="path9352"
         inkscape:connector-curvature="0" />
    </marker>
    <marker
       inkscape:isstock="true"
       style="overflow:visible"
       id="marker9202"
       refX="0"
       refY="0"
       orient="auto"
       inkscape:stockid="Arrow1Lstart">
      <path
         transform="matrix(0.8,0,0,0.8,10,0)"
         style="fill:#007200;fill-opacity:1;fill-rule:evenodd;stroke:#007200;stroke-width:1pt;stroke-opacity:1"
         d="M 0,0 5,-5 -12.5,0 5,5 0,0 Z"
         id="path9204"
         inkscape:connector-curvature="0" />
    </marker>
    <marker
       inkscape:isstock="true"
       style="overflow:visible"
       id="marker9060"
       refX="0"
       refY="0"
       orient="auto"
       inkscape:stockid="Arrow1Lstart">
      <path
         transform="matrix(0.8,0,0,0.8,10,0)"
         style="fill:#007200;fill-opacity:1;fill-rule:evenodd;stroke:#007200;stroke-width:1pt;stroke-opacity:1"
         d="M 0,0 5,-5 -12.5,0 5,5 0,0 Z"
         id="path9062"
         inkscape:connector-curvature="0" />
    </marker>
    <marker
       inkscape:isstock="true"
       style="overflow:visible"
       id="marker8924"
       refX="0"
       refY="0"
       orient="auto"
       inkscape:stockid="Arrow1Lstart">
      <path
         transform="matrix(0.8,0,0,0.8,10,0)"
         style="fill:#007200;fill-opacity:1;fill-rule:evenodd;stroke:#007200;stroke-width:1pt;stroke-opacity:1"
         d="M 0,0 5,-5 -12.5,0 5,5 0,0 Z"
         id="path8926"
         inkscape:connector-curvature="0" />
    </marker>
    <marker
       inkscape:isstock="true"
       style="overflow:visible"
       id="marker8794"
       refX="0"
       refY="0"
       orient="auto"
       inkscape:stockid="Arrow1Lstart">
      <path
         transform="matrix(0.8,0,0,0.8,10,0)"
         style="fill:#007200;fill-opacity:1;fill-rule:evenodd;stroke:#007200;stroke-width:1pt;stroke-opacity:1"
         d="M 0,0 5,-5 -12.5,0 5,5 0,0 Z"
         id="path8796"
         inkscape:connector-curvature="0" />
    </marker>
    <marker
       inkscape:isstock="true"
       style="overflow:visible"
       id="marker8670"
       refX="0"
       refY="0"
       orient="auto"
       inkscape:stockid="Arrow1Lstart">
      <path
         transform="matrix(0.8,0,0,0.8,10,0)"
         style="fill:#007200;fill-opacity:1;fill-rule:evenodd;stroke:#007200;stroke-width:1pt;stroke-opacity:1"
         d="M 0,0 5,-5 -12.5,0 5,5 0,0 Z"
         id="path8672"
         inkscape:connector-curvature="0" />
    </marker>
    <marker
       inkscape:isstock="true"
       style="overflow:visible"
       id="marker8552"
       refX="0"
       refY="0"
       orient="auto"
       inkscape:stockid="Arrow1Lstart">
      <path
         transform="matrix(0.8,0,0,0.8,10,0)"
         style="fill:#007200;fill-opacity:1;fill-rule:evenodd;stroke:#007200;stroke-width:1pt;stroke-opacity:1"
         d="M 0,0 5,-5 -12.5,0 5,5 0,0 Z"
         id="path8554"
         inkscape:connector-curvature="0" />
    </marker>
    <marker
       inkscape:isstock="true"
       style="overflow:visible"
       id="marker8440"
       refX="0"
       refY="0"
       orient="auto"
       inkscape:stockid="Arrow1Lstart">
      <path
         transform="matrix(0.8,0,0,0.8,10,0)"
         style="fill:#007200;fill-opacity:1;fill-rule:evenodd;stroke:#007200;stroke-width:1pt;stroke-opacity:1"
         d="M 0,0 5,-5 -12.5,0 5,5 0,0 Z"
         id="path8442"
         inkscape:connector-curvature="0" />
    </marker>
    <marker
       inkscape:isstock="true"
       style="overflow:visible"
       id="marker8334"
       refX="0"
       refY="0"
       orient="auto"
       inkscape:stockid="Arrow1Lstart">
      <path
         transform="matrix(0.8,0,0,0.8,10,0)"
         style="fill:#007200;fill-opacity:1;fill-rule:evenodd;stroke:#007200;stroke-width:1pt;stroke-opacity:1"
         d="M 0,0 5,-5 -12.5,0 5,5 0,0 Z"
         id="path8336"
         inkscape:connector-curvature="0" />
    </marker>
    <marker
       inkscape:isstock="true"
       style="overflow:visible"
       id="marker8234"
       refX="0"
       refY="0"
       orient="auto"
       inkscape:stockid="Arrow1Lstart">
      <path
         transform="matrix(0.8,0,0,0.8,10,0)"
         style="fill:#007200;fill-opacity:1;fill-rule:evenodd;stroke:#007200;stroke-width:1pt;stroke-opacity:1"
         d="M 0,0 5,-5 -12.5,0 5,5 0,0 Z"
         id="path8236"
         inkscape:connector-curvature="0" />
    </marker>
    <marker
       inkscape:isstock="true"
       style="overflow:visible"
       id="marker8140"
       refX="0"
       refY="0"
       orient="auto"
       inkscape:stockid="Arrow1Lstart">
      <path
         transform="matrix(0.8,0,0,0.8,10,0)"
         style="fill:#007200;fill-opacity:1;fill-rule:evenodd;stroke:#007200;stroke-width:1pt;stroke-opacity:1"
         d="M 0,0 5,-5 -12.5,0 5,5 0,0 Z"
         id="path8142"
         inkscape:connector-curvature="0" />
    </marker>
    <marker
       inkscape:isstock="true"
       style="overflow:visible"
       id="marker8052"
       refX="0"
       refY="0"
       orient="auto"
       inkscape:stockid="Arrow1Lstart">
      <path
         transform="matrix(0.8,0,0,0.8,10,0)"
         style="fill:#007200;fill-opacity:1;fill-rule:evenodd;stroke:#007200;stroke-width:1pt;stroke-opacity:1"
         d="M 0,0 5,-5 -12.5,0 5,5 0,0 Z"
         id="path8054"
         inkscape:connector-curvature="0" />
    </marker>
    <marker
       inkscape:isstock="true"
       style="overflow:visible"
       id="marker7970"
       refX="0"
       refY="0"
       orient="auto"
       inkscape:stockid="Arrow1Lstart">
      <path
         transform="matrix(0.8,0,0,0.8,10,0)"
         style="fill:#007200;fill-opacity:1;fill-rule:evenodd;stroke:#007200;stroke-width:1pt;stroke-opacity:1"
         d="M 0,0 5,-5 -12.5,0 5,5 0,0 Z"
         id="path7972"
         inkscape:connector-curvature="0" />
    </marker>
    <marker
       inkscape:isstock="true"
       style="overflow:visible"
       id="marker7894"
       refX="0"
       refY="0"
       orient="auto"
       inkscape:stockid="Arrow1Lstart">
      <path
         transform="matrix(0.8,0,0,0.8,10,0)"
         style="fill:#007200;fill-opacity:1;fill-rule:evenodd;stroke:#007200;stroke-width:1pt;stroke-opacity:1"
         d="M 0,0 5,-5 -12.5,0 5,5 0,0 Z"
         id="path7896"
         inkscape:connector-curvature="0" />
    </marker>
    <marker
       inkscape:isstock="true"
       style="overflow:visible"
       id="marker7824"
       refX="0"
       refY="0"
       orient="auto"
       inkscape:stockid="Arrow1Lstart">
      <path
         transform="matrix(0.8,0,0,0.8,10,0)"
         style="fill:#007200;fill-opacity:1;fill-rule:evenodd;stroke:#007200;stroke-width:1pt;stroke-opacity:1"
         d="M 0,0 5,-5 -12.5,0 5,5 0,0 Z"
         id="path7826"
         inkscape:connector-curvature="0" />
    </marker>
    <marker
       inkscape:isstock="true"
       style="overflow:visible"
       id="marker7760"
       refX="0"
       refY="0"
       orient="auto"
       inkscape:stockid="Arrow1Lstart">
      <path
         transform="matrix(0.8,0,0,0.8,10,0)"
         style="fill:#007200;fill-opacity:1;fill-rule:evenodd;stroke:#007200;stroke-width:1pt;stroke-opacity:1"
         d="M 0,0 5,-5 -12.5,0 5,5 0,0 Z"
         id="path7762"
         inkscape:connector-curvature="0" />
    </marker>
    <marker
       inkscape:isstock="true"
       style="overflow:visible"
       id="marker7702"
       refX="0"
       refY="0"
       orient="auto"
       inkscape:stockid="Arrow1Lstart">
      <path
         transform="matrix(0.8,0,0,0.8,10,0)"
         style="fill:#007200;fill-opacity:1;fill-rule:evenodd;stroke:#007200;stroke-width:1pt;stroke-opacity:1"
         d="M 0,0 5,-5 -12.5,0 5,5 0,0 Z"
         id="path7704"
         inkscape:connector-curvature="0" />
    </marker>
    <marker
       inkscape:isstock="true"
       style="overflow:visible"
       id="marker7650"
       refX="0"
       refY="0"
       orient="auto"
       inkscape:stockid="Arrow1Lstart">
      <path
         transform="matrix(0.8,0,0,0.8,10,0)"
         style="fill:#007200;fill-opacity:1;fill-rule:evenodd;stroke:#007200;stroke-width:1pt;stroke-opacity:1"
         d="M 0,0 5,-5 -12.5,0 5,5 0,0 Z"
         id="path7652"
         inkscape:connector-curvature="0" />
    </marker>
    <marker
       inkscape:isstock="true"
       style="overflow:visible"
       id="marker7604"
       refX="0"
       refY="0"
       orient="auto"
       inkscape:stockid="Arrow1Lstart">
      <path
         transform="matrix(0.8,0,0,0.8,10,0)"
         style="fill:#007200;fill-opacity:1;fill-rule:evenodd;stroke:#007200;stroke-width:1pt;stroke-opacity:1"
         d="M 0,0 5,-5 -12.5,0 5,5 0,0 Z"
         id="path7606"
         inkscape:connector-curvature="0" />
    </marker>
    <marker
       inkscape:isstock="true"
       style="overflow:visible"
       id="marker7564"
       refX="0"
       refY="0"
       orient="auto"
       inkscape:stockid="Arrow1Lstart">
      <path
         transform="matrix(0.8,0,0,0.8,10,0)"
         style="fill:#007200;fill-opacity:1;fill-rule:evenodd;stroke:#007200;stroke-width:1pt;stroke-opacity:1"
         d="M 0,0 5,-5 -12.5,0 5,5 0,0 Z"
         id="path7566"
         inkscape:connector-curvature="0" />
    </marker>
    <marker
       inkscape:isstock="true"
       style="overflow:visible"
       id="marker7530"
       refX="0"
       refY="0"
       orient="auto"
       inkscape:stockid="Arrow1Lstart">
      <path
         transform="matrix(0.8,0,0,0.8,10,0)"
         style="fill:#007200;fill-opacity:1;fill-rule:evenodd;stroke:#007200;stroke-width:1pt;stroke-opacity:1"
         d="M 0,0 5,-5 -12.5,0 5,5 0,0 Z"
         id="path7532"
         inkscape:connector-curvature="0" />
    </marker>
    <marker
       inkscape:isstock="true"
       style="overflow:visible"
       id="marker7502"
       refX="0"
       refY="0"
       orient="auto"
       inkscape:stockid="Arrow1Lstart">
      <path
         transform="matrix(0.8,0,0,0.8,10,0)"
         style="fill:#007200;fill-opacity:1;fill-rule:evenodd;stroke:#007200;stroke-width:1pt;stroke-opacity:1"
         d="M 0,0 5,-5 -12.5,0 5,5 0,0 Z"
         id="path7504"
         inkscape:connector-curvature="0" />
    </marker>
    <marker
       inkscape:isstock="true"
       style="overflow:visible"
       id="marker7480"
       refX="0"
       refY="0"
       orient="auto"
       inkscape:stockid="Arrow1Lstart">
      <path
         transform="matrix(0.8,0,0,0.8,10,0)"
         style="fill:#007200;fill-opacity:1;fill-rule:evenodd;stroke:#007200;stroke-width:1pt;stroke-opacity:1"
         d="M 0,0 5,-5 -12.5,0 5,5 0,0 Z"
         id="path7482"
         inkscape:connector-curvature="0" />
    </marker>
  </defs>
  <sodipodi:namedview
     id="base"
     pagecolor="#ffffff"
     bordercolor="#666666"
     borderopacity="1.0"
     inkscape:pageopacity="0.0"
     inkscape:pageshadow="2"
     inkscape:zoom="0.4665165"
     inkscape:cx="570.47766"
     inkscape:cy="254.41368"
     inkscape:document-units="px"
     inkscape:current-layer="layer5"
     showgrid="false"
     inkscape:window-width="1280"
     inkscape:window-height="693"
     inkscape:window-x="-1"
     inkscape:window-y="0"
     inkscape:window-maximized="0" />
  <metadata
     id="metadata5957">
    <rdf:RDF>
      <cc:Work
         rdf:about="">
        <dc:format>image/svg+xml</dc:format>
        <dc:type
           rdf:resource="http://purl.org/dc/dcmitype/StillImage" />
        <dc:title />
      </cc:Work>
    </rdf:RDF>
  </metadata>
  <g
     inkscape:groupmode="layer"
     id="layer2"
     inkscape:label="Background"
     style="display:inline"
     transform="translate(0,-308.26772)">
    <rect
       style="fill:#502d16;fill-opacity:1;stroke:none;stroke-opacity:1"
       id="rect5979"
       width="1057.2422"
       height="763.49506"
       x="0"
       y="300.29568"
       inkscape:export-xdpi="36.068703"
       inkscape:export-ydpi="36.068703" />
  </g>
  <g
     inkscape:groupmode="layer"
     id="layer5"
     inkscape:label="Cirlces"
     transform="translate(0,-308.26772)"
     style="display:inline">
    <ellipse
       style="fill:#a12200;fill-opacity:0;fill-rule:nonzero;stroke:none;stroke-width:4;stroke-miterlimit:4;stroke-dasharray:none;stroke-opacity:1"
       id="path10600"
       cx="193.12921"
       cy="597.24072"
       rx="60.896599"
       ry="46.188583" />
    <path
       style="opacity:1;fill:#781631;fill-opacity:0;fill-rule:nonzero;stroke:#000100;stroke-width:4.20701885;stroke-miterlimit:4;stroke-dasharray:none;stroke-opacity:1"
       d=""
       id="path4734"
       inkscape:connector-curvature="0" />
    <path
       style="opacity:1;fill:#781631;fill-opacity:0;fill-rule:nonzero;stroke:#000100;stroke-width:4.20701885;stroke-miterlimit:4;stroke-dasharray:none;stroke-opacity:1"
       d=""
       id="path4736"
       inkscape:connector-curvature="0" />
    <path
       style="opacity:1;fill:#781631;fill-opacity:0;fill-rule:nonzero;stroke:#000100;stroke-width:4.20701885;stroke-miterlimit:4;stroke-dasharray:none;stroke-opacity:1"
       d=""
       id="path4738"
       inkscape:connector-curvature="0" />
    <path
       style="opacity:1;fill:#784421;fill-opacity:0;fill-rule:nonzero;stroke:#000100;stroke-width:4.20701885;stroke-miterlimit:4;stroke-dasharray:none;stroke-opacity:1"
       d=""
       id="path4790"
       inkscape:connector-curvature="0" />
    <path
       style="opacity:1;fill:#784421;fill-opacity:0;fill-rule:nonzero;stroke:#000100;stroke-width:4.20701885;stroke-miterlimit:4;stroke-dasharray:none;stroke-opacity:1"
       d=""
       id="path4792"
       inkscape:connector-curvature="0" />
    <g
       id="g4850"
       style="fill:#784421;fill-opacity:1;stroke:none"
       transform="matrix(1.4123464,0,0,1.3633841,-1063.2612,-612.07475)">
      <ellipse
         ry="38.805592"
         rx="41.26944"
         cy="817.68079"
         cx="826.0047"
         id="path4848"
         style="opacity:1;fill:#784421;fill-opacity:1;fill-rule:nonzero;stroke:none;stroke-width:3.41499996;stroke-miterlimit:4;stroke-dasharray:none;stroke-opacity:1" />
    </g>
    <ellipse
       style="opacity:1;fill:#784421;fill-opacity:1;fill-rule:nonzero;stroke:none;stroke-width:3.41499996;stroke-miterlimit:4;stroke-dasharray:none;stroke-opacity:1"
       id="path4855"
       cx="886.26489"
       cy="922.992"
       rx="53.936985"
       ry="47.028378" />
    <ellipse
       style="opacity:1;fill:#2b1100;fill-opacity:1;fill-rule:nonzero;stroke:none;stroke-width:3.41499996;stroke-miterlimit:4;stroke-dasharray:none;stroke-opacity:1"
       id="path4859"
       cx="545.45953"
       cy="638.39056"
       rx="51.327133"
       ry="57.105885" />
    <ellipse
       style="opacity:1;fill:#2b1100;fill-opacity:1;fill-rule:nonzero;stroke:none;stroke-width:3.41499996;stroke-miterlimit:4;stroke-dasharray:none;stroke-opacity:1"
       id="path4861"
       cx="682.91187"
       cy="823.14502"
       rx="51.327133"
       ry="60.465054" />
    <ellipse
       style="opacity:1;fill:#2b1100;fill-opacity:1;fill-rule:nonzero;stroke:none;stroke-width:3.41499996;stroke-miterlimit:4;stroke-dasharray:none;stroke-opacity:1"
       id="path4869"
       cx="633.32465"
       cy="590.52234"
       rx="29.578346"
       ry="31.072304" />
    <ellipse
       transform="matrix(0.02359561,0.99972158,-0.86193646,0.5070163,0,0)"
       ry="49.546055"
       rx="45.326313"
       cy="-998.21655"
       cx="1105.3401"
       id="ellipse4875"
       style="opacity:1;fill:#2b1100;fill-opacity:1;fill-rule:nonzero;stroke:none;stroke-width:3.41499996;stroke-miterlimit:4;stroke-dasharray:none;stroke-opacity:1" />
    <ellipse
       ry="31.072304"
       rx="29.578346"
       cy="509.90225"
       cx="822.97412"
       id="ellipse4877"
       style="opacity:1;fill:#2b1100;fill-opacity:1;fill-rule:nonzero;stroke:none;stroke-width:3.41499996;stroke-miterlimit:4;stroke-dasharray:none;stroke-opacity:1" />
    <ellipse
       style="opacity:1;fill:#2b1100;fill-opacity:1;fill-rule:nonzero;stroke:none;stroke-width:3.41499996;stroke-miterlimit:4;stroke-dasharray:none;stroke-opacity:1"
       id="path4881"
       cx="208.69069"
       cy="747.7915"
       rx="99.911751"
       ry="57.258846" />
    <g
       transform="matrix(1.454506,0,0,0.84399967,-764.02564,286.30546)"
       style="fill:#784421;fill-opacity:1;stroke:none"
       id="g4905">
      <ellipse
         style="opacity:1;fill:#784421;fill-opacity:1;fill-rule:nonzero;stroke:none;stroke-width:3.41499996;stroke-miterlimit:4;stroke-dasharray:none;stroke-opacity:1"
         id="ellipse4907"
         cx="826.0047"
         cy="817.68079"
         rx="41.26944"
         ry="38.805592" />
    </g>
    <ellipse
       ry="27.713152"
       rx="33.058151"
       cy="717.66022"
       cx="848.13995"
       id="ellipse4911"
       style="opacity:1;fill:#784421;fill-opacity:1;fill-rule:nonzero;stroke:none;stroke-width:3.41499996;stroke-miterlimit:4;stroke-dasharray:none;stroke-opacity:1" />
    <ellipse
       style="opacity:1;fill:#784421;fill-opacity:1;fill-rule:nonzero;stroke:none;stroke-width:3.41499996;stroke-miterlimit:4;stroke-dasharray:none;stroke-opacity:1"
       id="ellipse4917"
       cx="790.78583"
       cy="419.20468"
       rx="21.748783"
       ry="20.994812" />
    <ellipse
       ry="110.58311"
       rx="73.583725"
       cy="464.43692"
       cx="372.56876"
       id="ellipse4939"
       style="opacity:1;fill:#2b1100;fill-opacity:1;fill-rule:nonzero;stroke:none;stroke-width:3.41499996;stroke-miterlimit:4;stroke-dasharray:none;stroke-opacity:1" />
  </g>
  <g
     inkscape:groupmode="layer"
     id="layer4"
     inkscape:label="Layer 3"
     style="display:inline"
     transform="translate(0,-308.26772)"
     sodipodi:insensitive="true">
    <path
       style="color:#000000;font-style:normal;font-variant:normal;font-weight:normal;font-stretch:normal;font-size:medium;line-height:normal;font-family:sans-serif;text-indent:0;text-align:start;text-decoration:none;text-decoration-line:none;text-decoration-style:solid;text-decoration-color:#000000;letter-spacing:normal;word-spacing:normal;text-transform:none;direction:ltr;block-progression:tb;writing-mode:lr-tb;baseline-shift:baseline;text-anchor:start;white-space:normal;clip-rule:nonzero;display:inline;overflow:visible;visibility:visible;opacity:1;isolation:auto;mix-blend-mode:normal;color-interpolation:sRGB;color-interpolation-filters:linearRGB;solid-color:#000000;solid-opacity:1;fill:#007200;fill-opacity:1;fill-rule:evenodd;stroke:#000100;stroke-width:5.55059719;stroke-linecap:butt;stroke-linejoin:miter;stroke-miterlimit:4;stroke-dasharray:none;stroke-dashoffset:0;stroke-opacity:1;color-rendering:auto;image-rendering:auto;shape-rendering:auto;text-rendering:auto;enable-background:accumulate"
       d="m 763.44426,303.25577 0,59.36845 5.12251,1.41131 c 0,0 -0.22865,-0.18573 0.75031,0.58051 0.97899,0.76624 2.50471,2.26934 3.8812,5.51744 2.75298,6.4962 4.70345,20.46054 -3.07571,47.49477 -15.00422,52.14251 -62.84943,55.45937 -62.84941,55.45937 l -1.56131,0.13848 -1.35718,0.76157 c 0,0 -6.09618,3.51476 -12.01874,10.77127 -5.92257,7.2565 -12.1644,18.64311 -13.91382,34.68641 -0.2041,1.87172 -0.78678,2.81242 -2.53229,4.13276 -1.74552,1.32034 -4.83351,2.65496 -8.93199,3.56556 -8.19697,1.82121 -20.08036,1.97444 -31.95157,1.12906 -23.12408,-1.64674 -45.50239,-6.59314 -46.6902,-6.85687 -2.2177,-1.40383 -6.01932,-3.43003 -12.18976,-3.61616 -8.68759,-0.26208 -20.08916,3.705 -32.26605,16.29936 l 10.32779,9.30137 c 10.29226,-10.64514 17.34498,-12.10013 21.4969,-11.97488 4.15193,0.1253 5.56111,1.57375 5.56111,1.57375 l 1.34063,1.15035 1.542,0.34884 c -1.09763,1.93191 -2.32851,4.02822 -3.7681,6.23907 -2.06899,3.17747 -4.40995,6.34038 -6.49349,8.52914 -2.08352,2.18877 -4.07562,2.98707 -3.53362,2.89987 l 2.31989,13.44744 c 5.35682,-0.86187 8.58102,-3.93513 11.61323,-7.1205 3.03223,-3.18537 5.70745,-6.89892 8.05205,-10.49965 2.68607,-4.12515 4.83153,-7.97919 6.25901,-10.66208 8.69703,1.53624 20.38761,3.31157 32.56119,4.31117 -3.1349,2.20103 -6.0708,4.48068 -8.452,6.91543 -1.53836,1.57297 -2.97181,3.10393 -3.91981,5.76776 -0.21588,0.60661 -0.39056,1.31531 -0.48274,2.08502 l -0.34757,-0.14113 c 0,0 -5.95475,13.7867 -13.03662,27.45941 -3.54094,6.83635 -7.38486,13.64772 -10.69467,18.4403 -1.65489,2.39629 -3.20923,4.29094 -4.23427,5.28044 -0.24314,0.23472 -0.44894,0.36944 -0.60412,0.45536 0.46163,-0.0185 0.93581,-0.0559 1.38477,-0.0559 -1.77515,0 -1.88379,0.33224 -1.38477,0.0559 -6.90932,0.27857 -15.17936,2.51874 -23.67335,3.9144 -4.53074,0.74446 -8.90483,1.25687 -12.18149,1.25687 -3.27664,0 -5.17104,-0.85283 -4.8908,-0.63642 -0.45948,-0.35485 -0.74749,-0.76865 -1.44544,-2.72677 -0.69797,-1.95812 -1.56371,-5.16525 -3.83982,-8.59837 -4.55221,-6.86627 -14.08819,-12.45185 -33.52116,-14.8987 l -1.82888,13.51933 c 17.48063,2.20104 21.5879,5.91198 23.45543,8.72886 0.93378,1.40844 1.47082,3.138 2.37783,5.68254 0.54361,1.52514 1.31758,3.4472 2.60677,5.3337 -0.98468,2.04053 -2.51286,4.92271 -4.55702,7.64774 -1.75757,2.34298 -3.81238,4.32654 -5.46457,5.26714 -1.65223,0.9406 -2.43436,1.10641 -4.03568,0.59115 l -4.466,12.93351 c 5.62093,1.80868 11.45789,0.61863 15.67374,-1.78145 4.21586,-2.40008 7.27657,-5.74055 9.73195,-9.01379 2.29986,-3.06588 4.07213,-6.17701 5.3294,-8.64629 1.61563,0.18655 3.24597,0.23166 4.87425,0.23166 4.12117,0 8.43924,-0.50619 12.74422,-1.17166 0.12881,0.67085 0.25185,1.29095 0.38619,2.0291 l -18.09016,5.37099 4.15427,13.03203 15.95234,-4.73988 c 0.33071,2.88679 0.62408,5.8477 0.79997,8.86998 0.1185,2.0369 0.18817,4.08087 0.20137,6.09528 -1.33718,0.87577 -6.12081,3.98793 -12.15666,7.38678 -3.47065,1.95435 -7.1161,3.83854 -9.97469,5.03014 -2.85861,1.19159 -5.63589,0.82608 -3.21089,1.41132 l -3.42604,13.22642 c 5.63487,1.35989 8.47488,-0.55422 12.23666,-2.1223 3.76177,-1.56808 7.74028,-3.65521 11.49186,-5.76776 1.11129,-0.62578 2.12542,-1.23575 3.17778,-1.85334 -1.56481,5.47629 -3.72026,8.14183 -6.56245,9.05637 l 4.46599,12.93619 c 9.05557,-2.91388 13.84257,-11.10494 16.02408,-19.4442 2.18149,-8.33927 2.35853,-17.71286 1.83438,-26.71914 -0.58737,-10.09288 -2.13675,-19.65237 -3.39569,-26.21053 5.03365,-0.91186 9.17524,-1.64299 10.58708,-1.64299 4.73456,0 7.07315,-2.33303 9.20783,-4.39371 2.13469,-2.06068 4.04074,-4.52488 5.99697,-7.35748 3.91242,-5.66519 7.89332,-12.79753 11.57461,-19.90488 3.24337,-6.26186 6.12984,-12.30821 8.4658,-17.32988 1.02664,2.51936 2.04952,5.30674 2.97918,8.06314 0.52655,1.56122 0.99261,3.05387 1.45371,4.52685 -1.84661,1.62666 -4.45675,4.06579 -7.12242,7.12848 -4.68167,5.37898 -10.33426,12.48489 -8.96232,21.75556 l 13.98278,-1.9279 c -0.233,-1.57444 2.09394,-6.80907 5.79282,-11.05886 2.59027,-2.97606 5.22416,-5.32967 6.61487,-6.51602 l 6.62037,-1.59771 c 0,0 -2.05019,-7.92886 -4.95149,-16.53103 -1.45065,-4.30111 -3.10606,-8.78032 -4.93493,-12.7125 -1.10372,-2.37306 -2.08056,-4.50347 -3.51709,-6.4814 1.84687,-1.7157 4.65715,-3.95913 8.02445,-6.21511 6.27471,-4.20386 12.14827,-7.49481 14.34691,-8.71288 4.82905,-0.27524 9.48242,-0.82735 13.80071,-1.78679 5.38069,-1.19547 10.34147,-2.99406 14.47656,-6.1219 4.13508,-3.12785 7.26608,-7.94935 7.86445,-13.4368 1.46046,-13.3934 6.4527,-22.14987 10.96224,-27.6751 3.90049,-4.779 6.62981,-6.51471 7.41482,-6.98734 4.11084,-0.55509 26.84244,-4.26856 46.67639,-22.05912 1.98751,13.67937 2.61284,41.88027 -17.08333,72.21408 l -0.30067,-0.8814 -8.08514,10.93636 c 0,0 -7.64877,10.32321 -17.72605,20.5626 -5.03863,5.1197 -10.6739,10.17421 -15.95786,13.759 -5.28394,3.58478 -10.19379,5.41626 -12.92075,5.41626 l 0,13.63384 c 1.95176,0 3.84914,-0.22745 5.69903,-0.63377 -0.0422,0.0496 -0.0847,0.0968 -0.12683,0.14645 -9.19836,10.83101 -18.25938,22.00611 -24.87881,31.40312 -3.30972,4.69849 -6.01101,8.91789 -7.88653,12.71249 -0.93775,1.8973 -1.68267,3.67709 -2.15162,5.60798 -0.46896,1.93089 -0.88671,4.19565 0.38344,7.05658 0.2045,0.46064 1.66087,7.00808 1.99439,14.57382 0.33349,7.56575 0.039,16.85199 -1.28822,25.72856 -1.32717,8.87656 -3.7629,17.34931 -7.14725,23.17753 -3.14643,5.41847 -6.45915,8.22566 -10.87397,9.00046 l -0.1986,-0.048 -0.022,0.0852 c -0.26284,0.0417 -0.51524,0.10294 -0.78617,0.13048 l 0.22068,2.02909 -4.81356,18.41101 c -3.11969,1.70037 -9.65052,5.34698 -16.4406,9.71678 -4.67459,3.00835 -9.44075,6.32204 -13.40074,9.73807 -3.96,3.41604 -7.67702,6.28252 -8.70579,12.24117 -3.00643,17.41326 11.34522,34.61685 -12.57871,41.032 l 3.77913,13.13589 c 32.9622,-8.83877 23.12084,-48.46608 22.76581,-51.64083 -0.0517,10e-4 -0.0744,-0.0612 -0.0359,-0.28494 -0.006,0.0311 0.0263,0.19904 0.0359,0.28494 0.25121,-0.008 1.56825,-2.37539 4.14877,-4.60142 3.11176,-2.68434 7.47245,-5.75959 11.82564,-8.5611 4.2404,-2.72894 8.42598,-5.1825 11.63806,-7.00598 1.69742,2.4426 4.08781,6.07625 7.07001,10.9763 l 5.56387,20.1392 -6.53486,48.8688 2.32265,2.35397 c 0,0 7.87901,7.99882 14.84619,16.40588 3.48359,4.20353 6.73106,8.56019 8.45202,11.58611 0.86047,1.51293 1.27989,2.74922 1.29649,2.83327 0.008,0.042 -0.10183,-0.26756 0.0855,-1.05449 0.1874,-0.78692 0.92116,-2.05159 1.87578,-2.74275 l 8.47407,10.90707 c 1.75709,-1.27213 2.99251,-3.33587 3.41502,-5.11001 0.42248,-1.77416 0.2798,-3.25841 0.0249,-4.55083 -0.51002,-2.58487 -1.54557,-4.65271 -2.79158,-6.84355 -2.49202,-4.3817 -6.06504,-9.03202 -9.80367,-13.54331 -5.75568,-6.94517 -10.80292,-12.2424 -13.33729,-14.86675 l 5.50042,-41.14917 c 1.33987,-1.52932 6.49211,-7.08054 11.14981,-7.08054 2.68108,0 6.42278,1.06555 11.90288,8.11906 5.48012,7.05351 11.93886,19.94121 18.21982,41.16249 l 13.58005,-3.74665 c -6.55856,-22.15912 -13.34231,-36.382 -20.5011,-45.59614 -7.15879,-9.21415 -15.45062,-13.5726 -23.20165,-13.5726 -4.37095,0 -8.13501,1.12476 -11.30704,2.72411 -8.41834,-15.23189 -13.95675,-22.91282 -15.98269,-25.63003 l 4.03843,-15.43926 c 4.78064,-2.97891 8.60825,-7.32669 11.40635,-12.1453 4.74065,-8.1639 7.32086,-17.99008 8.80234,-27.89877 1.48148,-9.9087 1.78927,-19.89261 1.42062,-28.25561 -0.33734,-7.65285 -0.97038,-13.22065 -2.73918,-17.93702 0.10706,-0.44071 0.48625,-1.50573 1.15029,-2.84925 1.3281,-2.68706 3.73403,-6.53832 6.81899,-10.91773 6.16992,-8.75887 15.06239,-19.7603 24.12022,-30.42583 14.0987,-16.60111 28.303,-32.10924 34.03976,-38.31322 1.08988,4.13828 2.16881,8.60463 2.98745,13.2557 1.31875,7.49251 1.86684,14.93316 1.16684,19.40426 -0.35001,2.23555 -1.03719,3.57823 -1.29374,3.89044 -0.0627,0.0764 -0.0706,0.1208 -0.0634,0.14646 0.0744,0.0252 0.015,0.0465 0,0 -0.0473,-0.0161 -0.14081,-0.0319 -0.36687,-0.0319 l 0,13.63384 c 4.44106,0 8.93199,-2.15911 11.49462,-5.27778 2.56262,-3.11867 3.62209,-6.67794 4.19291,-10.32391 1.14163,-7.2919 0.23356,-15.53455 -1.20822,-23.72607 -1.9935,-11.3261 -5.14906,-22.10703 -6.96243,-27.90144 18.03289,-23.71913 24.24523,-47.47215 25.78637,-66.00164 0.50618,3.78657 1.08331,7.67408 1.75991,11.62604 4.43965,25.9316 12.02871,54.92534 29.95719,71.11699 -5.11136,7.92351 -13.21076,22.12899 -18.05983,39.02421 l -20.28869,23.5237 10.8519,8.72352 5.43422,-6.29766 c -0.0477,5.18607 0.3889,10.43551 1.47303,15.66827 l 13.85037,-2.67352 c -2.24724,-10.84668 -0.78759,-22.50236 2.25645,-33.37626 l 0.94892,-1.09978 -0.50756,-0.4074 c 4.23902,-14.36133 11.10072,-27.20712 15.63512,-34.78495 6.08639,4.71012 9.69919,11.49738 11.71806,20.01673 2.35183,9.92444 2.19646,21.88958 0.75307,33.31502 -2.63129,20.82852 -8.73572,37.73074 -9.89746,40.88555 -7.58489,3.66892 -38.01188,20.35045 -38.10026,55.64844 l -0.27032,0.0533 c 0,0 2.81832,13.63199 5.11698,29.76278 -1.01724,0.95291 -5.25306,4.82919 -11.27669,8.91525 -6.88415,4.66981 -15.77439,8.83006 -21.81965,8.83006 l 0,13.63384 c 11.60906,0 21.97909,-5.90853 29.94064,-11.30918 1.85887,-1.26095 3.5725,-2.51764 5.13354,-3.71202 0.32708,3.4327 0.55758,6.75046 0.71722,9.94844 l -20.94246,16.17155 8.82166,10.64611 11.4091,-8.80873 c -0.0397,0.17765 -0.0742,0.39292 -0.11581,0.55653 -0.52916,2.07885 -1.38659,2.60205 -0.52411,2.01312 l 8.15685,11.13076 c 3.87447,-2.64562 5.16223,-6.27729 6.08247,-9.89252 0.92024,-3.61523 1.2969,-7.61262 1.41786,-12.0175 0.24193,-8.80975 -0.62721,-19.20359 -1.85371,-29.31008 -0.5572,-4.59151 -1.19651,-9.08895 -1.84543,-13.34892 6.38881,6.67879 14.86266,13.4004 25.90222,18.26987 -0.61643,1.524 -1.309,3.14297 -2.08542,4.7825 -1.47674,3.11838 -3.23284,6.19958 -4.82735,8.23357 -1.59452,2.03398 -2.98638,2.50424 -2.35024,2.40189 l 2.32265,13.44745 c 4.34571,-0.69919 7.09541,-3.10245 9.43128,-5.7012 l 0,0.52725 14.12346,0 0,-16.318 c 5.84099,3.60312 8.59995,7.2832 10.05469,10.18545 2.17245,4.33407 1.59717,6.56128 1.59717,6.56128 l 13.93037,2.23947 c 0,0 1.02966,-7.06593 -2.81642,-14.73893 -3.84607,-7.67301 -12.44108,-16.32736 -28.99171,-22.21358 -13.77082,-4.89757 -23.15725,-13.25013 -29.61514,-21.08719 -3.22895,-3.91853 -5.69756,-7.69003 -7.5693,-10.80055 -1.13324,-1.88326 -1.9416,-3.38191 -2.72815,-4.75321 3.72056,-26.96945 32.26329,-39.02153 32.26329,-39.02153 l 2.76125,-1.15835 1.04546,-2.72411 c 0,0 8.2884,-21.49044 11.42015,-46.28049 1.56587,-12.39505 1.91028,-25.70335 -1.00409,-38.00168 -2.91438,-12.29832 -9.44073,-23.88867 -21.43071,-30.83324 -16.0579,-9.30073 -26.82077,-39.44456 -31.67297,-67.78575 -1.52399,-8.90148 -2.52592,-17.42011 -3.23847,-25.07615 3.93527,6.80116 8.14701,13.39223 12.51804,18.55747 2.44464,2.88883 4.88885,5.36801 7.87271,7.25628 2.53613,1.60494 6.08551,2.81899 9.7954,2.20485 0.82904,1.88623 1.71226,6.11512 2.07714,10.60618 0.7434,9.14965 -0.003,19.29773 -0.003,19.29773 l 14.08485,1.00656 c 0,0 0.73906,-9.48242 0.12132,-19.40957 4.49825,2.57261 9.92344,5.45212 16.07372,8.23621 2.01133,4.99183 7.24508,17.36672 14.54276,29.8906 4.66897,8.01265 10.11262,16.03301 16.46541,22.27217 -2.29461,7.05289 -6.43222,20.6871 -8.84371,34.35887 -1.72377,9.77283 -2.74918,19.3929 -0.87995,27.66711 0.9346,4.13711 2.69635,8.26301 6.47417,11.22395 3.77781,2.96094 9.20276,3.82239 14.24484,2.80133 l -2.89918,-13.34359 c -2.17713,0.44088 -2.20554,0.14481 -2.44126,-0.0399 -0.23572,-0.18476 -1.04929,-1.19231 -1.58061,-3.54427 -1.06266,-4.70392 -0.58218,-13.48391 1.00409,-22.4772 1.81613,-10.29645 4.78649,-20.87573 7.0176,-28.14109 3.59494,1.50682 7.47552,2.22294 11.62978,1.68825 3.99547,-0.51426 5.09096,-0.0701 5.28527,-0.0346 -0.0127,0.15645 -0.0143,0.3489 -0.13234,0.98792 -0.58366,3.15521 -3.93911,8.64897 -3.93911,8.64897 l 11.75116,7.56251 c 0,0 4.67098,-6.12503 6.09349,-13.81491 0.71126,-3.84495 0.50595,-9.29199 -3.69361,-13.18381 -4.19957,-3.89183 -10.1694,-4.58914 -17.23229,-3.68008 -2.73259,0.35171 -6.82677,-1.37714 -11.72081,-6.16451 -4.89405,-4.78738 -9.95731,-12.02759 -14.2945,-19.47083 -3.24444,-5.56795 -6.09889,-11.21895 -8.40236,-16.11297 15.35709,4.81027 32.84074,7.36588 49.80453,2.91849 1.14005,2.79142 2.73534,6.43156 4.68391,10.10555 1.99661,3.76457 4.30499,7.57929 7.29896,10.80323 2.99398,3.22394 7.46359,6.71809 13.53592,5.74113 l -2.31989,-13.45011 c 1.25748,-0.20232 0.87439,0.30338 -0.70067,-1.39267 -1.57506,-1.69605 -3.55309,-4.73127 -5.24112,-7.91403 -1.31537,-2.4801 -2.40925,-4.91539 -3.34054,-7.09652 3.52771,-0.46041 6.24686,-0.45778 8.19548,-0.18906 3.73755,0.51543 4.66666,1.52279 5.37353,2.50841 1.41373,1.97126 0.94065,6.17783 0.94065,6.17783 l 13.74555,3.12089 c 0,0 2.73555,-8.96176 -3.07296,-17.06096 -2.90425,-4.04959 -8.19477,-7.3045 -14.98962,-8.24154 -6.79486,-0.93704 -15.13926,-4.1e-4 -26.19462,3.28331 -18.18875,5.40252 -39.97194,-0.0498 -57.24692,-7.46134 -16.83222,-7.22164 -28.6961,-15.67469 -29.30344,-16.1103 -1.01816,-1.77734 -2.40877,-3.50065 -4.60116,-4.84374 -2.5262,-1.5476 -6.01161,-1.74994 -8.99543,-1.06248 0.0227,0.0226 -0.003,0.0237 -0.0883,0.016 0.0288,-0.007 0.0595,-0.01 0.0883,-0.016 -0.0304,-0.0301 -0.15476,-0.10171 -0.42756,-0.27427 -0.96579,-0.61118 -2.75962,-2.21151 -4.67839,-4.47894 -3.83758,-4.53485 -8.35586,-11.61074 -12.46011,-18.87435 -8.2085,-14.5272 -14.94549,-29.80805 -14.94549,-29.80805 l -0.42205,0.1731 c 1.4625,-3.50203 2.7945,-7.20517 3.93636,-11.17337 8.2702,-28.74057 7.00983,-45.76272 2.54058,-56.30883 -2.23463,-5.27305 -5.3251,-8.80566 -8.05755,-10.94434 -0.2257,-0.17666 -0.41755,-0.22808 -0.64549,-0.38879 l 0,-50.38129 -14.12346,0 z"
       id="path6917"
       inkscape:connector-curvature="0" />
  </g>
</svg>
